<svg width="24" height="24" viewBox="0 0 24 24" fill="none" xmlns="http://www.w3.org/2000/svg">
<path d="M12.0002 22.899C9.92895 22.9018 7.90085 22.3022 6.15895 21.1723L6.66685 20.3739C8.25784 21.4025 10.1081 21.9493 11.9981 21.9493C13.8881 21.9493 15.7384 21.4025 17.3294 20.3739L17.8373 21.1723C16.0966 22.3015 14.07 22.901 12.0002 22.899Z" fill="white"/>
<path d="M12.2352 0H11.7647V12.0002H12.2352V0Z" fill="white"/>
<path d="M12.7888 11.9998C12.7888 11.8424 12.7426 11.6886 12.6558 11.5577C12.5691 11.4269 12.4459 11.3249 12.3017 11.2647C12.1575 11.2045 11.9989 11.1887 11.8458 11.2194C11.6928 11.2501 11.5521 11.3259 11.4418 11.4372C11.3314 11.5484 11.2563 11.6902 11.2258 11.8445C11.1954 11.9989 11.211 12.1588 11.2707 12.3042C11.3305 12.4496 11.4316 12.5739 11.5614 12.6613C11.6911 12.7487 11.8437 12.7954 11.9998 12.7954C12.1034 12.7954 12.206 12.7749 12.3018 12.7349C12.3976 12.695 12.4846 12.6364 12.5579 12.5625C12.6311 12.4886 12.6893 12.4008 12.7289 12.3043C12.7685 12.2077 12.7889 12.1043 12.7888 11.9998Z" fill="white"/>
<path d="M12.0002 11.7628H0.0983582V12.2372H12.0002V11.7628Z" fill="white"/>
<path d="M12.2352 11.9998H11.7647V24H12.2352V11.9998Z" fill="white"/>
<path d="M2.13181 11.9998C2.12965 10.0939 2.67211 8.22779 3.69429 6.62465L2.90243 6.11255C1.78446 7.8699 1.19019 9.91384 1.19019 12.0016C1.19019 14.0894 1.78446 16.1334 2.90243 17.8907L3.69429 17.3786C2.67211 15.7755 2.12965 13.9094 2.13181 12.0035V11.9998Z" fill="white"/>
<path d="M11.9998 11.7628H23.9016V12.2372H11.9998V11.7628Z" fill="white"/>
<path d="M15.5716 11.9998C15.5716 11.2875 15.3621 10.5912 14.9697 9.99892C14.5772 9.40667 14.0193 8.94507 13.3666 8.67249C12.714 8.3999 11.9958 8.32858 11.3029 8.46755C10.61 8.60651 9.97359 8.94951 9.47406 9.45317C8.97452 9.95684 8.63433 10.5986 8.49651 11.2972C8.35869 11.9958 8.42943 12.7199 8.69977 13.378C8.97012 14.036 9.42793 14.5985 10.0153 14.9942C10.6027 15.3899 11.2933 15.6012 11.9997 15.6012C12.9468 15.6002 13.8547 15.2204 14.5244 14.5453C15.194 13.8701 15.5706 12.9546 15.5716 11.9998ZM15.1007 11.9998C15.1007 12.6181 14.9188 13.2226 14.5781 13.7368C14.2373 14.2509 13.753 14.6517 13.1864 14.8883C12.6198 15.125 11.9963 15.1869 11.3948 15.0662C10.7933 14.9456 10.2407 14.6478 9.80707 14.2106C9.3734 13.7733 9.07806 13.2162 8.95841 12.6097C8.83876 12.0032 8.90017 11.3746 9.13487 10.8033C9.36957 10.232 9.76703 9.74367 10.277 9.40012C10.7869 9.05657 11.3864 8.8732 11.9997 8.8732C12.8219 8.87406 13.6101 9.20374 14.1915 9.7899C14.7728 10.3761 15.0998 11.1708 15.1007 11.9998Z" fill="white"/>
<path d="M21.87 11.9998C21.8722 10.0939 21.3297 8.22779 20.3075 6.62465L21.0994 6.11255C22.2174 7.8699 22.8117 9.91384 22.8117 12.0016C22.8117 14.0894 22.2174 16.1334 21.0994 17.8907L20.3075 17.3786C21.3303 15.7745 21.8728 13.9072 21.87 12.0002V11.9998Z" fill="white"/>
<path d="M12.0002 1.101C9.92895 1.09824 7.90085 1.69776 6.15895 2.8277L6.66685 3.6261C8.25784 2.59748 10.1081 2.05073 11.9981 2.05073C13.8881 2.05073 15.7384 2.59748 17.3294 3.6261L17.8373 2.8277C16.0966 1.69851 14.07 1.09902 12.0002 1.101Z" fill="white"/>
</svg>
