<svg width="24" height="18" viewBox="0 0 24 18" fill="none" xmlns="http://www.w3.org/2000/svg">
<path d="M4.72952 17.9105V16.7192C4.72952 16.2624 4.45147 15.9646 3.97487 15.9646C3.73662 15.9646 3.47847 16.044 3.29974 16.3022C3.1608 16.0837 2.96226 15.9646 2.6644 15.9646C2.46577 15.9646 2.26732 16.0241 2.10839 16.2426V16.0043H1.69141V17.9105H2.10839V16.8581C2.10839 16.5206 2.28712 16.3617 2.56518 16.3617C2.84304 16.3617 2.98216 16.5404 2.98216 16.8581V17.9105H3.39915V16.8581C3.39915 16.5206 3.5976 16.3617 3.85575 16.3617C4.1338 16.3617 4.27273 16.5404 4.27273 16.8581V17.9105H4.72952ZM10.9048 16.0043H10.2297V15.4285H9.81275V16.0043H9.43548V16.3815H9.81266V17.2553C9.81266 17.6921 9.9914 17.9502 10.468 17.9502C10.6467 17.9502 10.8452 17.8907 10.9843 17.8113L10.8651 17.4538C10.7459 17.5332 10.607 17.5531 10.5077 17.5531C10.3092 17.5531 10.2297 17.434 10.2297 17.2354V16.3815H10.9048V16.0043ZM14.4393 15.9645C14.201 15.9645 14.0422 16.0837 13.9429 16.2426V16.0043H13.5259V17.9105H13.9429V16.8383C13.9429 16.5206 14.0818 16.3419 14.34 16.3419C14.4194 16.3419 14.5187 16.3618 14.5981 16.3816L14.7173 15.9845C14.6378 15.9646 14.5187 15.9646 14.4393 15.9646V15.9645ZM9.09791 16.1631C8.89928 16.0241 8.62132 15.9646 8.32346 15.9646C7.84695 15.9646 7.52929 16.2029 7.52929 16.5801C7.52929 16.8979 7.76754 17.0765 8.18452 17.1361L8.38306 17.156C8.60151 17.1957 8.72063 17.2553 8.72063 17.3546C8.72063 17.4935 8.5618 17.5928 8.28375 17.5928C8.00579 17.5928 7.78735 17.4935 7.64832 17.3943L7.44978 17.712C7.66822 17.8708 7.96608 17.9502 8.26385 17.9502C8.81986 17.9502 9.13762 17.6921 9.13762 17.3347C9.13762 16.9971 8.87947 16.8184 8.48229 16.7589L8.28375 16.739C8.10501 16.7191 7.96608 16.6794 7.96608 16.5603C7.96608 16.4213 8.10501 16.3419 8.32346 16.3419C8.5618 16.3419 8.80005 16.4411 8.91917 16.5007L9.09791 16.1631ZM20.1779 15.9646C19.9395 15.9646 19.7807 16.0837 19.6814 16.2426V16.0043H19.2644V17.9105H19.6814V16.8383C19.6814 16.5206 19.8204 16.3419 20.0785 16.3419C20.158 16.3419 20.2573 16.3618 20.3367 16.3816L20.4558 15.9845C20.3764 15.9646 20.2573 15.9646 20.1779 15.9646ZM14.8563 16.9574C14.8563 17.5332 15.2534 17.9502 15.869 17.9502C16.1469 17.9502 16.3455 17.8907 16.544 17.7319L16.3455 17.3943C16.1867 17.5134 16.0278 17.5729 15.8491 17.5729C15.5115 17.5729 15.2733 17.3347 15.2733 16.9574C15.2733 16.6 15.5115 16.3617 15.8491 16.3419C16.0278 16.3419 16.1867 16.4014 16.3455 16.5206L16.544 16.183C16.3455 16.0241 16.1469 15.9646 15.869 15.9646C15.2534 15.9646 14.8563 16.3816 14.8563 16.9574ZM18.7085 16.9574V16.0043H18.2915V16.2426C18.1525 16.0639 17.9539 15.9646 17.6958 15.9646C17.1596 15.9646 16.7427 16.3816 16.7427 16.9574C16.7427 17.5332 17.1596 17.9502 17.6958 17.9502C17.9737 17.9502 18.1724 17.851 18.2915 17.6722V17.9105H18.7085V16.9574ZM17.1795 16.9574C17.1795 16.6198 17.3979 16.3419 17.7553 16.3419C18.0928 16.3419 18.3312 16.6 18.3312 16.9574C18.3312 17.295 18.0928 17.5729 17.7553 17.5729C17.3979 17.553 17.1795 17.295 17.1795 16.9574ZM12.1955 15.9646C11.6395 15.9646 11.2424 16.3617 11.2424 16.9574C11.2424 17.5531 11.6394 17.9502 12.2153 17.9502C12.4933 17.9502 12.7714 17.8708 12.9898 17.6921L12.7912 17.3943C12.6323 17.5134 12.4338 17.5928 12.2352 17.5928C11.9771 17.5928 11.7189 17.4737 11.6593 17.136H13.0692V16.9773C13.0891 16.3617 12.7316 15.9646 12.1954 15.9646H12.1955ZM12.1955 16.322C12.4536 16.322 12.6324 16.4809 12.672 16.7788H11.6792C11.7189 16.5206 11.8977 16.322 12.1955 16.322ZM22.5407 16.9574V15.2498H22.1238V16.2426C21.9847 16.0639 21.7862 15.9646 21.528 15.9646C20.9919 15.9646 20.5749 16.3816 20.5749 16.9574C20.5749 17.5332 20.9919 17.9502 21.528 17.9502C21.8061 17.9502 22.0046 17.851 22.1238 17.6722V17.9105H22.5407V16.9574ZM21.0118 16.9574C21.0118 16.6198 21.2302 16.3419 21.5876 16.3419C21.9252 16.3419 22.1635 16.6 22.1635 16.9574C22.1635 17.295 21.9252 17.5729 21.5876 17.5729C21.2302 17.553 21.0118 17.295 21.0118 16.9574ZM7.0725 16.9574V16.0043H6.65552V16.2426C6.51649 16.0639 6.31795 15.9646 6.0598 15.9646C5.52369 15.9646 5.1067 16.3816 5.1067 16.9574C5.1067 17.5332 5.52369 17.9502 6.0598 17.9502C6.33785 17.9502 6.53639 17.851 6.65552 17.6722V17.9105H7.0725V16.9574ZM5.52369 16.9574C5.52369 16.6198 5.74213 16.3419 6.09951 16.3419C6.43707 16.3419 6.67542 16.6 6.67542 16.9574C6.67542 17.295 6.43707 17.5729 6.09951 17.5729C5.74213 17.553 5.52369 17.295 5.52369 16.9574Z" fill="black"/>
<path d="M9.35621 7.14835C9.35621 4.86488 10.4284 2.83948 12.0765 1.52891C10.8653 0.575819 9.3364 0 7.66846 0C3.71687 0 0.52002 3.19685 0.52002 7.14835C0.52002 11.0998 3.71687 14.2967 7.66837 14.2967C9.33631 14.2967 10.8652 13.7209 12.0765 12.7677C10.4284 11.477 9.35621 9.43182 9.35621 7.14835Z" fill="#EB001B"/>
<path d="M23.6531 7.14835C23.6531 11.0998 20.4563 14.2967 16.5048 14.2967C14.8368 14.2967 13.3079 13.7209 12.0967 12.7677C13.7646 11.4572 14.817 9.43182 14.817 7.14835C14.817 4.86488 13.7447 2.83948 12.0967 1.52891C13.3078 0.575819 14.8368 0 16.5048 0C20.4563 0 23.6532 3.21675 23.6532 7.14835H23.6531Z" fill="#F79E1B"/>
</svg>
