<svg width="56" height="18" viewBox="0 0 56 18" fill="none" xmlns="http://www.w3.org/2000/svg">
<path d="M28.7126 5.76748C28.6809 8.26493 30.9383 9.65852 32.6388 10.4872C34.3859 11.3373 34.9727 11.8825 34.9658 12.6428C34.9527 13.8063 33.5722 14.3199 32.2803 14.3398C30.0264 14.3747 28.7159 13.7313 27.674 13.2446L26.8621 17.0439C27.9074 17.5256 29.8429 17.9457 31.85 17.9641C36.5615 17.9641 39.6438 15.6384 39.6605 12.0326C39.6789 7.45623 33.3306 7.20293 33.374 5.15744C33.3889 4.5372 33.9808 3.87532 35.2776 3.70703C35.9195 3.62202 37.6916 3.55696 39.7006 4.48211L40.4892 0.80621C39.4087 0.412811 38.0201 0.0361118 36.2913 0.0361118C31.8567 0.0361118 28.7378 2.39346 28.7126 5.76748ZM48.0661 0.352739C47.2058 0.352739 46.4808 0.854568 46.1572 1.62467L39.4272 17.6941H44.1351L45.072 15.1049H50.8251L51.3685 17.6941H55.5181L51.897 0.352739H48.0661ZM48.7247 5.03729L50.0834 11.5492H46.3624L48.7247 5.03729ZM23.0044 0.352955L19.2934 17.6939H23.7797L27.489 0.352522H23.0044V0.352955ZM16.3676 0.352522L11.698 12.156L9.80913 2.11999C9.58749 0.999655 8.71222 0.352739 7.74022 0.352739H0.106916L0 0.856304C1.56708 1.19635 3.34757 1.74481 4.42627 2.33165C5.08641 2.69014 5.27465 3.00351 5.49152 3.85536L9.06918 17.6941H13.8101L21.0787 0.352739H16.3676" fill="url(#paint0_linear_233_4543)"/>
<defs>
<linearGradient id="paint0_linear_233_4543" x1="25.5239" y1="18.3237" x2="26.0428" y2="-0.0885711" gradientUnits="userSpaceOnUse">
<stop stop-color="#222357"/>
<stop offset="1" stop-color="#254AA5"/>
</linearGradient>
</defs>
</svg>
