<svg width="18" height="18" viewBox="0 0 18 18" fill="none" xmlns="http://www.w3.org/2000/svg">
<path d="M14.2183 11.2868C14.5143 11.4009 14.6281 11.8455 14.6508 12.0394C14.6964 12.3932 14.5942 12.5301 14.4803 12.5301C14.3664 12.5301 14.2069 12.3932 14.0365 12.1195C13.8657 11.8455 13.7974 11.5378 13.8886 11.3779C13.9452 11.2751 14.0701 11.2297 14.2183 11.2868ZM12.4889 12.5758C12.671 12.5758 12.8758 12.6556 13.0579 12.8151C13.4105 13.1118 13.5131 13.4539 13.3309 13.7049C13.2284 13.8304 13.0579 13.9102 12.8645 13.9102C12.671 13.9102 12.4662 13.8418 12.3297 13.7163C12.0111 13.4426 11.9202 12.986 12.1246 12.7353C12.2045 12.6325 12.3297 12.5758 12.4889 12.5758ZM8.50673 15.8721C4.18259 15.8721 0.678223 12.3588 0.678223 8.0245C0.678223 3.69017 4.18294 0.177246 8.50637 0.177246C12.8302 0.177246 16.3349 3.69052 16.3349 8.0245C16.3349 9.49576 15.9253 10.8762 15.2315 12.0511C15.2085 12.0852 15.1515 12.0738 15.1402 12.0281C14.8672 10.1006 13.6952 9.03949 11.9885 8.72042C11.8403 8.69738 11.8176 8.60627 12.0111 8.58358C12.5345 8.53785 13.274 8.54919 13.6609 8.61761C13.6835 8.42369 13.6952 8.21843 13.6952 8.01316C13.6952 5.15007 11.3738 2.82301 8.51769 2.82301C5.66193 2.82301 3.34054 5.15007 3.34054 8.01316C3.34054 10.8762 5.66193 13.2033 8.51804 13.2033H8.75676C8.67566 12.7402 8.6413 12.2701 8.6542 11.8001C8.66587 11.4807 8.73413 11.435 8.87064 11.686C9.58749 12.9293 10.6117 14.0471 12.6141 14.492C14.2526 14.8571 15.891 15.279 17.6547 17.5259C17.8139 17.7199 17.5751 17.9251 17.393 17.7656C15.5954 16.1685 13.9569 15.6438 12.4662 15.6438C10.7935 15.6555 9.6561 15.8721 8.50673 15.8721Z" fill="#FF8C00"/>
</svg>
