<svg width="44" height="44" viewBox="0 0 44 44" fill="none" xmlns="http://www.w3.org/2000/svg">
<g filter="url(#filter0_d_449_3315)">
<path d="M2.83921 2.83921C3.10455 2.57319 3.41978 2.36213 3.76681 2.21813C4.11385 2.07412 4.48589 2 4.86163 2C5.23736 2 5.6094 2.07412 5.95644 2.21813C6.30348 2.36213 6.6187 2.57319 6.88404 2.83921L22.0007 17.9616L37.1175 2.83921C37.383 2.57362 37.6983 2.36295 38.0453 2.21921C38.3924 2.07548 38.7643 2.0015 39.1399 2.0015C39.5155 2.0015 39.8874 2.07548 40.2344 2.21921C40.5814 2.36295 40.8967 2.57362 41.1623 2.83921C41.4279 3.1048 41.6386 3.42009 41.7823 3.7671C41.926 4.11411 42 4.48603 42 4.86163C42 5.23722 41.926 5.60914 41.7823 5.95615C41.6386 6.30316 41.4279 6.61846 41.1623 6.88404L26.0399 22.0007L41.1623 37.1175C41.4279 37.383 41.6386 37.6983 41.7823 38.0453C41.926 38.3924 42 38.7643 42 39.1399C42 39.5155 41.926 39.8874 41.7823 40.2344C41.6386 40.5814 41.4279 40.8967 41.1623 41.1623C40.8967 41.4279 40.5814 41.6386 40.2344 41.7823C39.8874 41.926 39.5155 42 39.1399 42C38.7643 42 38.3924 41.926 38.0453 41.7823C37.6983 41.6386 37.383 41.4279 37.1175 41.1623L22.0007 26.0399L6.88404 41.1623C6.61846 41.4279 6.30316 41.6386 5.95615 41.7823C5.60914 41.926 5.23722 42 4.86163 42C4.48603 42 4.11411 41.926 3.7671 41.7823C3.42009 41.6386 3.1048 41.4279 2.83921 41.1623C2.57362 40.8967 2.36295 40.5814 2.21921 40.2344C2.07548 39.8874 2.0015 39.5155 2.0015 39.1399C2.0015 38.7643 2.07548 38.3924 2.21921 38.0453C2.36295 37.6983 2.57362 37.383 2.83921 37.1175L17.9616 22.0007L2.83921 6.88404C2.57319 6.6187 2.36213 6.30348 2.21813 5.95644C2.07412 5.6094 2 5.23736 2 4.86163C2 4.48589 2.07412 4.11385 2.21813 3.76681C2.36213 3.41978 2.57319 3.10455 2.83921 2.83921Z" fill="#fff"/>
</g>
<defs>
<filter id="filter0_d_449_3315" x="0" y="0" width="44" height="44" filterUnits="userSpaceOnUse" color-interpolation-filters="sRGB">
<feFlood flood-opacity="0" result="BackgroundImageFix"/>
<feColorMatrix in="SourceAlpha" type="matrix" values="0 0 0 0 0 0 0 0 0 0 0 0 0 0 0 0 0 0 127 0" result="hardAlpha"/>
<feOffset/>
<feGaussianBlur stdDeviation="1"/>
<feComposite in2="hardAlpha" operator="out"/>
<feColorMatrix type="matrix" values="0 0 0 0 0 0 0 0 0 0 0 0 0 0 0 0 0 0 0.25 0"/>
<feBlend mode="normal" in2="BackgroundImageFix" result="effect1_dropShadow_449_3315"/>
<feBlend mode="normal" in="SourceGraphic" in2="effect1_dropShadow_449_3315" result="shape"/>
</filter>
</defs>
</svg>
