<svg width="24" height="24" viewBox="0 0 24 24" fill="none" xmlns="http://www.w3.org/2000/svg">
<path d="M0.807692 4.80288H23.2067C23.7356 4.80288 24 4.53365 24 3.99519V1.60096C24 1.14904 23.8462 0.769231 23.5385 0.461538C23.2308 0.153846 22.851 0 22.399 0H1.60096C1.14904 0 0.769231 0.153846 0.461538 0.461538C0.153846 0.769231 0 1.14904 0 1.60096V3.99519C0 4.53365 0.269231 4.80288 0.807692 4.80288ZM3.99519 19.1971H0.807692C0.269231 19.1971 0 19.4663 0 20.0048V22.399C0 22.851 0.153846 23.2308 0.461538 23.5385C0.769231 23.8462 1.14904 24 1.60096 24H3.99519C4.53365 24 4.80288 23.7308 4.80288 23.1923V20.0048C4.80288 19.4663 4.53365 19.1971 3.99519 19.1971ZM20.0048 19.1971C19.4663 19.1971 19.1971 19.4663 19.1971 20.0048V23.1923C19.1971 23.7308 19.4663 24 20.0048 24H22.399C22.851 24 23.2308 23.8462 23.5385 23.5385C23.8462 23.2308 24 22.851 24 22.399V20.0048C24 19.4663 23.7356 19.1971 23.2067 19.1971H20.0048ZM13.601 19.1971C13.0625 19.1971 12.7933 19.4663 12.7933 20.0048V23.1923C12.7933 23.7308 13.0625 24 13.601 24H16.8029C17.3317 24 17.5962 23.7308 17.5962 23.1923V20.0048C17.5962 19.4663 17.3317 19.1971 16.8029 19.1971H13.601ZM7.19712 19.1971C6.66827 19.1971 6.40385 19.4663 6.40385 20.0048V23.1923C6.40385 23.7308 6.66827 24 7.19712 24H10.399C10.9375 24 11.2067 23.7308 11.2067 23.1923V20.0048C11.2067 19.4663 10.9375 19.1971 10.399 19.1971H7.19712ZM20.0048 12.7933C19.4663 12.7933 19.1971 13.0625 19.1971 13.601V16.8029C19.1971 17.3317 19.4663 17.5962 20.0048 17.5962H23.2067C23.7356 17.5962 24 17.3317 24 16.8029V13.601C24 13.0625 23.7356 12.7933 23.2067 12.7933H20.0048ZM13.601 12.7933C13.0625 12.7933 12.7933 13.0625 12.7933 13.601V16.8029C12.7933 17.3317 13.0625 17.5962 13.601 17.5962H16.8029C17.3317 17.5962 17.5962 17.3317 17.5962 16.8029V13.601C17.5962 13.0625 17.3317 12.7933 16.8029 12.7933H13.601ZM0.807692 12.7933C0.269231 12.7933 0 13.0625 0 13.601V16.8029C0 17.3317 0.269231 17.5962 0.807692 17.5962H3.99519C4.53365 17.5962 4.80288 17.3317 4.80288 16.8029V13.601C4.80288 13.0625 4.53365 12.7933 3.99519 12.7933H0.807692ZM7.19712 12.7933C6.66827 12.7933 6.40385 13.0625 6.40385 13.601V16.8029C6.40385 17.3317 6.66827 17.5962 7.19712 17.5962H10.399C10.9375 17.5962 11.2067 17.3317 11.2067 16.8029V13.601C11.2067 13.0625 10.9375 12.7933 10.399 12.7933H7.19712ZM20.0048 6.40385C19.4663 6.40385 19.1971 6.66827 19.1971 7.19712V10.399C19.1971 10.9375 19.4663 11.2067 20.0048 11.2067H23.2067C23.7356 11.2067 24 10.9375 24 10.399V7.19712C24 6.66827 23.7356 6.40385 23.2067 6.40385H20.0048ZM13.601 6.40385C13.0625 6.40385 12.7933 6.66827 12.7933 7.19712V10.399C12.7933 10.9375 13.0625 11.2067 13.601 11.2067H16.8029C17.3317 11.2067 17.5962 10.9375 17.5962 10.399V7.19712C17.5962 6.66827 17.3317 6.40385 16.8029 6.40385H13.601ZM0.807692 6.40385C0.269231 6.40385 0 6.66827 0 7.19712V10.399C0 10.9375 0.269231 11.2067 0.807692 11.2067H3.99519C4.53365 11.2067 4.80288 10.9375 4.80288 10.399V7.19712C4.80288 6.66827 4.53365 6.40385 3.99519 6.40385H0.807692ZM7.19712 6.40385C6.66827 6.40385 6.40385 6.66827 6.40385 7.19712V10.399C6.40385 10.9375 6.66827 11.2067 7.19712 11.2067H10.399C10.9375 11.2067 11.2067 10.9375 11.2067 10.399V7.19712C11.2067 6.66827 10.9375 6.40385 10.399 6.40385H7.19712Z" fill="#BA0000"/>
</svg>
