<svg width="14" height="19" viewBox="0 0 14 19" fill="none" xmlns="http://www.w3.org/2000/svg">
<path d="M7 7.67003C10.479 7.67003 14 6.43343 14 4.07003C14 1.70663 10.479 0.470032 7 0.470032C3.521 0.470032 0 1.70663 0 4.07003C0 6.43343 3.521 7.67003 7 7.67003Z" fill="#BA0000"/>
<path d="M0 7.67003C0 10.0334 3.521 11.27 7 11.27C10.479 11.27 14 10.0334 14 7.67003V5.87003C14 8.23343 10.479 9.47003 7 9.47003C3.521 9.47003 0 8.23343 0 5.87003V7.67003Z" fill="#BA0000"/>
<path d="M0 11.27C0 13.6334 3.521 14.87 7 14.87C10.479 14.87 14 13.6334 14 11.27V9.47003C14 11.8334 10.479 13.07 7 13.07C3.521 13.07 0 11.8334 0 9.47003V11.27Z" fill="#BA0000"/>
<path d="M0 14.87C0 17.2334 3.521 18.47 7 18.47C10.479 18.47 14 17.2334 14 14.87V13.07C14 15.4334 10.479 16.67 7 16.67C3.521 16.67 0 15.4334 0 13.07V14.87Z" fill="#BA0000"/>
</svg>
